<svg xmlns="http://www.w3.org/2000/svg" width="206" height="70" fill="none" viewBox="0 0 206 70">
    <g clip-path="url(#prefix__clip0)">
        <path fill="#A6A6A6" d="M189.595 0H16.414c-.632 0-1.255 0-1.885.004-.527.003-1.05.013-1.582.022-1.156.013-2.309.115-3.45.305C8.36.525 7.256.89 6.226 1.414 5.196 1.943 4.256 2.63 3.44 3.45c-.822.818-1.507 1.764-2.029 2.8C.887 7.286.524 8.395.335 9.54c-.192 1.143-.295 2.3-.309 3.458-.016.53-.018 1.062-.026 1.591V54.52c.008.537.01 1.056.026 1.593.014 1.159.117 2.315.309 3.458.189 1.145.552 2.255 1.076 3.29.521 1.033 1.206 1.975 2.028 2.789.814.824 1.755 1.511 2.786 2.036 1.03.526 2.134.893 3.273 1.09 1.14.188 2.293.29 3.45.305.531.012 1.054.019 1.581.019.63.003 1.254.003 1.885.003h173.181c.619 0 1.248 0 1.867-.003.524 0 1.062-.007 1.587-.019 1.153-.014 2.304-.117 3.443-.305 1.142-.198 2.249-.566 3.284-1.09 1.031-.525 1.971-1.213 2.784-2.036.82-.817 1.507-1.758 2.035-2.79.519-1.035.879-2.144 1.065-3.289.192-1.143.299-2.3.32-3.458.007-.537.007-1.056.007-1.593.013-.627.013-1.252.013-1.89V16.475c0-.632 0-1.26-.013-1.886 0-.53 0-1.061-.007-1.59-.021-1.16-.128-2.316-.32-3.46-.187-1.143-.546-2.252-1.065-3.287-1.063-2.078-2.748-3.77-4.819-4.837-1.035-.523-2.142-.888-3.284-1.083-1.139-.19-2.29-.293-3.443-.306-.525-.008-1.063-.018-1.587-.022C190.843 0 190.214 0 189.595 0z"/>
        <path fill="#000" d="M14.538 67.59c-.525 0-1.037-.006-1.557-.018-1.078-.014-2.154-.108-3.218-.282-.992-.171-1.953-.49-2.852-.946-.89-.453-1.702-1.046-2.405-1.757-.713-.702-1.306-1.517-1.757-2.412-.455-.9-.77-1.866-.934-2.863-.177-1.07-.273-2.154-.287-3.24-.01-.364-.025-1.577-.025-1.577V14.588s.015-1.194.025-1.545c.013-1.084.109-2.165.285-3.234.164-1 .48-1.968.936-2.872.449-.894 1.039-1.71 1.747-2.415.708-.712 1.523-1.308 2.414-1.766.897-.455 1.856-.771 2.847-.94 1.067-.175 2.146-.27 3.228-.283l1.554-.021h176.914l1.572.022c1.072.012 2.141.106 3.199.28 1 .171 1.97.49 2.877.947 1.786.924 3.24 2.386 4.157 4.18.449.898.759 1.858.921 2.85.179 1.077.279 2.167.3 3.26.005.489.005 1.014.005 1.537.013.648.013 1.264.013 1.886V52.63c0 .628 0 1.24-.013 1.858 0 .562 0 1.076-.007 1.606-.02 1.073-.119 2.143-.294 3.202-.161 1.004-.475 1.977-.93 2.885-.454.885-1.044 1.693-1.748 2.394-.704.715-1.517 1.311-2.409 1.766-.905.46-1.873.78-2.872.95-1.064.174-2.139.269-3.218.282-.504.012-1.032.018-1.544.018l-1.867.004-175.057-.004z"/>
        <path fill="#fff" d="M42.64 35.07c.018-1.441.4-2.855 1.109-4.11.709-1.253 1.723-2.307 2.947-3.062-.778-1.115-1.803-2.032-2.996-2.679-1.193-.647-2.52-1.006-3.875-1.049-2.89-.304-5.693 1.736-7.166 1.736-1.502 0-3.77-1.705-6.212-1.655-1.58.051-3.12.512-4.469 1.338-1.35.826-2.463 1.989-3.231 3.375-3.33 5.784-.846 14.285 2.343 18.961 1.596 2.29 3.46 4.847 5.9 4.757 2.389-.1 3.28-1.528 6.163-1.528 2.855 0 3.692 1.528 6.182 1.47 2.562-.042 4.176-2.3 5.716-4.611 1.146-1.631 2.028-3.434 2.614-5.343-1.489-.631-2.76-1.689-3.653-3.04-.894-1.352-1.371-2.937-1.373-4.56zM37.937 21.095c1.397-1.683 2.085-3.846 1.918-6.03-2.134.225-4.105 1.249-5.521 2.867-.693.79-1.223 1.71-1.56 2.707-.339.996-.477 2.05-.41 3.1 1.068.011 2.125-.221 3.09-.68.965-.457 1.814-1.129 2.483-1.964zM72.823 46.883h-8.149l-1.957 5.799h-3.45l7.717-21.453h3.586l7.718 21.453h-3.51l-1.955-5.799zm-7.305-2.675h6.46l-3.185-9.41h-.089l-3.186 9.41zM94.957 44.864c0 4.86-2.593 7.983-6.505 7.983-.99.052-1.976-.177-2.843-.66-.868-.485-1.582-1.204-2.06-2.076h-.075v7.747h-3.199V37.043h3.097v2.601h.059c.5-.868 1.227-1.583 2.1-2.07.874-.487 1.863-.727 2.862-.695 3.956 0 6.564 3.138 6.564 7.985zm-3.289 0c0-3.166-1.63-5.248-4.119-5.248-2.444 0-4.088 2.126-4.088 5.248 0 3.152 1.644 5.262 4.088 5.262 2.489 0 4.12-2.066 4.12-5.262zM112.111 44.864c0 4.86-2.592 7.983-6.504 7.983-.991.052-1.977-.177-2.844-.66-.867-.485-1.581-1.204-2.06-2.076h-.074v7.747h-3.2V37.043h3.097v2.601h.059c.501-.868 1.227-1.583 2.101-2.07.874-.487 1.863-.727 2.862-.695 3.955 0 6.563 3.138 6.563 7.985zm-3.288 0c0-3.166-1.631-5.248-4.119-5.248-2.445 0-4.089 2.125-4.089 5.248 0 3.152 1.644 5.262 4.089 5.262 2.488 0 4.119-2.066 4.119-5.262zM123.449 46.706c.237 2.128 2.296 3.525 5.11 3.525 2.697 0 4.637-1.397 4.637-3.316 0-1.665-1.17-2.662-3.941-3.345l-2.77-.67c-3.926-.951-5.748-2.793-5.748-5.783 0-3.701 3.214-6.244 7.778-6.244 4.518 0 7.614 2.543 7.719 6.244h-3.23c-.193-2.14-1.957-3.433-4.534-3.433s-4.341 1.307-4.341 3.21c0 1.517 1.127 2.41 3.882 3.093l2.355.58c4.386 1.041 6.209 2.81 6.209 5.947 0 4.014-3.186 6.527-8.253 6.527-4.741 0-7.942-2.454-8.148-6.335h3.275zM143.479 33.342v3.701h2.964v2.542h-2.964v8.623c0 1.34.594 1.964 1.897 1.964.351-.006.703-.031 1.052-.075v2.528c-.586.11-1.181.16-1.777.148-3.155 0-4.386-1.19-4.386-4.223v-8.965h-2.266v-2.542h2.266v-3.701h3.214zM148.16 44.864c0-4.921 2.888-8.013 7.392-8.013 4.519 0 7.393 3.092 7.393 8.013 0 4.935-2.859 8.014-7.393 8.014-4.533 0-7.392-3.08-7.392-8.014zm11.526 0c0-3.376-1.542-5.368-4.134-5.368-2.593 0-4.133 2.008-4.133 5.368 0 3.39 1.54 5.367 4.133 5.367 2.592 0 4.133-1.978 4.133-5.367h.001zM165.583 37.043h3.051v2.662h.074c.207-.831.692-1.566 1.375-2.08.682-.515 1.521-.779 2.374-.746.369-.001.736.04 1.096.12v3.003c-.465-.143-.951-.208-1.437-.194-.465-.019-.928.063-1.358.241-.43.178-.817.447-1.134.789-.317.341-.556.748-.701 1.191-.146.444-.194.914-.141 1.377v9.278h-3.199V37.043zM188.303 48.09c-.43 2.84-3.185 4.788-6.711 4.788-4.534 0-7.348-3.049-7.348-7.94 0-4.906 2.829-8.087 7.214-8.087 4.312 0 7.024 2.972 7.024 7.715v1.1h-11.008v.194c-.051.575.021 1.155.21 1.7.19.546.493 1.045.89 1.464.396.42.877.749 1.41.967.534.218 1.107.32 1.682.299.756.07 1.515-.105 2.164-.501.648-.397 1.152-.992 1.436-1.7h3.037zm-10.814-4.668h7.792c.029-.518-.05-1.036-.23-1.522-.18-.485-.458-.929-.817-1.301-.359-.373-.791-.667-1.269-.865-.478-.197-.991-.293-1.507-.282-.521-.003-1.038.097-1.52.296-.482.198-.92.49-1.289.859-.369.369-.661.808-.861 1.29-.199.484-.301 1.002-.299 1.525zM65.117 15.082c.671-.048 1.344.054 1.97.298.628.244 1.193.625 1.655 1.115.462.49.81 1.077 1.02 1.719.209.641.273 1.321.189 1.99 0 3.293-1.774 5.186-4.834 5.186h-3.71V15.082h3.71zm-2.115 8.85h1.937c.48.03.959-.05 1.404-.23.445-.18.844-.459 1.169-.814.324-.355.566-.778.707-1.239.14-.46.178-.947.108-1.424.064-.474.024-.958-.12-1.415-.142-.457-.384-.877-.708-1.23-.324-.351-.721-.628-1.164-.808-.442-.18-.92-.26-1.396-.233h-1.937v7.394zM71.753 21.498c-.05-.51.01-1.027.17-1.514.162-.487.424-.935.768-1.315.344-.38.763-.684 1.231-.892.469-.207.975-.315 1.486-.315.512 0 1.018.108 1.486.315.468.208.888.512 1.232.892s.605.828.767 1.315c.161.487.22 1.003.17 1.514.05.512-.007 1.029-.168 1.517s-.422.937-.767 1.317c-.344.381-.764.685-1.232.894-.469.208-.975.316-1.488.316-.512 0-1.019-.108-1.487-.316-.469-.209-.889-.513-1.233-.894-.344-.38-.605-.83-.766-1.317-.161-.488-.219-1.005-.17-1.517zm5.737 0c0-1.686-.754-2.672-2.08-2.672-1.329 0-2.077.986-2.077 2.672 0 1.7.748 2.679 2.078 2.679 1.325 0 2.08-.986 2.08-2.679zM88.783 25.391h-1.587l-1.602-5.73h-.121l-1.596 5.73h-1.572l-2.137-7.779h1.552l1.389 5.936h.114l1.594-5.936h1.468l1.593 5.936H88l1.382-5.936h1.53l-2.128 7.78zM92.708 17.612h1.473v1.236h.114c.194-.444.521-.816.936-1.064.414-.249.896-.361 1.377-.322.377-.029.756.029 1.108.167.353.138.67.354.927.632.258.278.45.61.562.973.112.363.142.746.086 1.121v5.036h-1.53v-4.65c0-1.25-.54-1.872-1.672-1.872-.256-.012-.512.032-.75.128-.237.097-.451.244-.627.43-.176.188-.31.411-.391.655-.082.244-.11.502-.083.758v4.551h-1.53v-7.779zM101.729 14.575h1.53v10.816h-1.53V14.575zM105.386 21.498c-.049-.511.009-1.027.171-1.514.161-.487.423-.936.767-1.316.344-.38.764-.683 1.232-.891.468-.208.974-.315 1.486-.315.511 0 1.017.107 1.486.315.468.208.887.511 1.231.892.345.38.606.828.767 1.315.162.487.22 1.003.172 1.514.049.512-.008 1.028-.17 1.517-.161.488-.422.936-.766 1.317-.345.381-.764.685-1.233.893-.468.209-.975.316-1.487.316-.513 0-1.019-.107-1.488-.316-.468-.208-.888-.512-1.233-.893-.344-.38-.605-.83-.766-1.317-.161-.489-.219-1.005-.169-1.517zm5.737 0c0-1.686-.755-2.672-2.079-2.672-1.33 0-2.078.986-2.078 2.672 0 1.7.748 2.678 2.078 2.678 1.324 0 2.079-.985 2.079-2.678zM114.308 23.191c0-1.4 1.039-2.207 2.883-2.322l2.1-.122v-.671c0-.822-.541-1.285-1.587-1.285-.854 0-1.446.314-1.615.864h-1.482c.157-1.336 1.409-2.193 3.168-2.193 1.943 0 3.039.97 3.039 2.614v5.315h-1.472v-1.093h-.121c-.246.392-.591.712-1 .926-.409.215-.868.317-1.329.295-.325.034-.654 0-.965-.102-.312-.101-.598-.267-.842-.487-.243-.219-.438-.487-.572-.787-.134-.3-.204-.623-.205-.952zm4.983-.665v-.65l-1.893.122c-1.067.071-1.552.436-1.552 1.121 0 .7.606 1.108 1.438 1.108.244.025.49 0 .724-.073.234-.072.451-.192.639-.35.187-.159.341-.354.451-.573.111-.22.177-.46.193-.705zM122.825 21.498c0-2.458 1.259-4.015 3.218-4.015.484-.022.965.094 1.386.336.421.242.764.598.991 1.029h.114v-4.273h1.53v10.816h-1.466v-1.229h-.121c-.244.428-.6.78-1.029 1.02-.429.239-.915.356-1.405.337-1.972 0-3.218-1.557-3.218-4.02zm1.58 0c0 1.65.775 2.643 2.071 2.643 1.29 0 2.087-1.007 2.087-2.636 0-1.621-.806-2.643-2.087-2.643-1.287 0-2.071 1-2.071 2.636zM136.393 21.498c-.048-.51.01-1.027.171-1.514.162-.487.423-.935.767-1.315.345-.38.764-.684 1.232-.892.468-.207.974-.315 1.486-.315s1.018.108 1.486.315c.468.208.887.512 1.232.892.344.38.605.828.767 1.315.161.487.219 1.003.171 1.514.049.512-.008 1.029-.169 1.517-.162.488-.423.937-.767 1.317-.344.381-.764.685-1.233.894-.468.208-.975.316-1.487.316-.512 0-1.019-.108-1.488-.316-.468-.209-.888-.513-1.232-.894-.344-.38-.606-.83-.767-1.317-.161-.488-.218-1.005-.169-1.517zm5.738 0c0-1.686-.755-2.672-2.079-2.672-1.33 0-2.078.986-2.078 2.672 0 1.7.748 2.679 2.078 2.679 1.324 0 2.079-.986 2.079-2.679zM145.757 17.612h1.473v1.236h.114c.194-.444.521-.816.936-1.064.415-.249.896-.361 1.378-.322.377-.029.755.029 1.108.167.352.138.669.354.926.632.258.278.45.61.562.973.112.363.142.746.087 1.121v5.036h-1.53v-4.65c0-1.25-.542-1.872-1.673-1.872-.256-.012-.512.032-.749.128-.238.097-.452.244-.628.43-.176.188-.309.411-.391.655-.082.244-.11.502-.083.758v4.551h-1.53v-7.779zM160.985 15.675v1.973h1.68v1.293h-1.68v4c0 .815.335 1.172 1.096 1.172.195-.001.39-.013.584-.036v1.279c-.275.05-.554.075-.833.078-1.701 0-2.378-.6-2.378-2.1V18.94h-1.231v-1.293h1.231v-1.973h1.531zM164.754 14.575h1.517v4.287h.121c.203-.448.539-.822.962-1.071.423-.25.912-.362 1.401-.322.375-.02.75.042 1.099.184.348.142.661.359.916.636s.446.607.559.966c.113.36.146.74.096 1.114v5.022h-1.532v-4.643c0-1.243-.576-1.872-1.657-1.872-.263-.022-.528.014-.775.106-.248.092-.472.236-.658.424-.186.188-.329.415-.418.664-.09.248-.124.514-.101.778v4.543h-1.53V14.575zM180.345 23.29c-.208.712-.658 1.327-1.272 1.738-.614.412-1.353.593-2.087.513-.511.014-1.018-.084-1.487-.287-.469-.203-.889-.506-1.229-.888-.341-.382-.595-.834-.744-1.325-.149-.49-.191-1.007-.121-1.515-.068-.51-.026-1.027.123-1.52.149-.491.401-.945.74-1.33.339-.386.757-.693 1.224-.903.468-.21.975-.315 1.487-.311 2.157 0 3.459 1.479 3.459 3.922v.535h-5.474v.086c-.024.286.012.573.105.844.093.27.241.519.436.729.194.21.43.376.692.49.263.112.546.169.831.166.366.044.737-.022 1.065-.19.329-.168.6-.43.779-.753h1.473zm-5.381-2.506h3.915c.019-.261-.016-.523-.104-.77-.087-.247-.226-.472-.405-.662-.18-.19-.397-.34-.638-.44-.241-.1-.5-.15-.761-.143-.265-.004-.527.046-.772.146-.245.1-.468.249-.655.437-.187.187-.335.41-.435.657-.099.246-.149.51-.145.775z"/>
    </g>
    <defs>
        <clipPath id="prefix__clip0">
            <path fill="#fff" d="M0 0h206v69.102H0V0z"/>
        </clipPath>
    </defs>
</svg>
